<?xml version="1.0" encoding="UTF-8"?>
<svg width="400px" height="300px" viewBox="0 0 400 300" version="1.1" xmlns="http://www.w3.org/2000/svg" xmlns:xlink="http://www.w3.org/1999/xlink">
    <title>Bright</title>
    <defs>
        <linearGradient x1="50%" y1="0%" x2="50%" y2="98.0168269%" id="linearGradient-1">
            <stop stop-color="#825008" stop-opacity="0.5" offset="0%"></stop>
            <stop stop-color="#703A00" stop-opacity="0.7" offset="100%"></stop>
        </linearGradient>
        <path d="M0,0 L400,0 L400,300 L0,300 L0,0 Z" id="path-2"></path>
        <path d="M32.048565,0 L287.951435,1.81366828e-15 C299.095419,-1.0537935e-15 303.136497,1.16032014 307.210571,3.3391588 C311.284645,5.51799746 314.482003,8.71535463 316.660841,12.7894287 C318.83968,16.8635028 320,20.9045808 320,32.048565 L320,261 L320,261 L0,261 L0,32.048565 C0,20.9045808 1.16032014,16.8635028 3.3391588,12.7894287 C5.51799746,8.71535463 8.71535463,5.51799746 12.7894287,3.3391588 C16.8635028,1.16032014 20.9045808,0 32.048565,0 Z" id="path-3"></path>
        <filter x="-9.4%" y="-11.5%" width="118.8%" height="123.0%" filterUnits="objectBoundingBox" id="filter-4">
            <feOffset dx="0" dy="0" in="SourceAlpha" result="shadowOffsetOuter1"></feOffset>
            <feGaussianBlur stdDeviation="10" in="shadowOffsetOuter1" result="shadowBlurOuter1"></feGaussianBlur>
            <feColorMatrix values="0 0 0 0 0   0 0 0 0 0   0 0 0 0 0  0 0 0 0.25 0" type="matrix" in="shadowBlurOuter1"></feColorMatrix>
        </filter>
    </defs>
    <g id="Bright" stroke="none" fill="none" xlink:href="#path-2" fill-rule="evenodd">
        <use fill="#FFFFFF" xlink:href="#path-2"></use>
        <use fill="url(#linearGradient-1)" xlink:href="#path-2"></use>
        <g id="Group" stroke-width="1" transform="translate(40, 59)">
            <g id="Rectangle">
                <use fill="black" fill-opacity="1" filter="url(#filter-4)" xlink:href="#path-3"></use>
                <use fill="#FFFFFF" fill-rule="evenodd" xlink:href="#path-3"></use>
            </g>
            <g id="#-Mud-Mark-up-or-dow" transform="translate(36, 96)" fill="#291902" fill-rule="nonzero">
                <path d="M24.4726562,21.2617188 L25.2734375,16.9453125 L21.1914062,16.9453125 L22.6367188,9.796875 L18.3007812,9.796875 L16.8554688,16.9453125 L12.2851562,16.9453125 L13.7304688,9.796875 L9.4140625,9.796875 L7.96875,16.9453125 L3.9453125,16.9453125 L3.125,21.2617188 L7.12890625,21.2617188 L6.11328125,26.1835938 L2.0703125,26.1835938 L1.25,30.5390625 L5.2734375,30.5390625 L3.76953125,38 L8.0859375,38 L9.58984375,30.5390625 L14.1601562,30.5390625 L12.65625,38 L16.9921875,38 L18.4960938,30.5390625 L22.5976562,30.5390625 L23.3984375,26.1835938 L19.3164062,26.1835938 L20.3515625,21.2617188 L24.4726562,21.2617188 Z M11.2304688,20.890625 L16.3671875,20.890625 L15.1757812,26.5742188 L10.078125,26.5742188 L11.2304688,20.890625 Z" id="Shape"></path>
                <polygon id="Path" points="70.1367188 38 70.1367188 9.81640625 63.203125 9.81640625 55.390625 28.7617188 55.0390625 28.7617188 47.2460938 9.81640625 40.2929688 9.81640625 40.2929688 38 45.7617188 38 45.7617188 19.1523438 46.0742188 19.1523438 53.2617188 36.3789062 57.1875 36.3789062 64.3554688 19.1523438 64.6679688 19.1523438 64.6679688 38"></polygon>
                <path d="M95.8984375,16.4570312 L90.2148438,16.4570312 L90.2148438,28.8789062 C90.2148438,31.75 88.6914062,33.5273438 85.859375,33.5273438 C83.2421875,33.5273438 81.8945312,32.0039062 81.8945312,29.0351562 L81.8945312,16.4570312 L76.2109375,16.4570312 L76.2109375,30.5 C76.2109375,35.5 79.1015625,38.46875 83.75,38.46875 C87.0117188,38.46875 89.0234375,37.0429688 90.0390625,34.5429688 L90.390625,34.5429688 L90.390625,38 L95.8984375,38 L95.8984375,16.4570312 Z" id="Path"></path>
                <path d="M109.316406,38.3320312 C112.304688,38.3320312 114.746094,36.9453125 115.898438,34.6210938 L116.25,34.6210938 L116.25,38 L121.757812,38 L121.757812,8.234375 L116.074219,8.234375 L116.074219,19.8945312 L115.742188,19.8945312 C114.628906,17.5117188 112.226562,16.1054688 109.316406,16.1054688 C103.90625,16.1054688 100.546875,20.34375 100.546875,27.1992188 C100.546875,34.0742188 103.886719,38.3320312 109.316406,38.3320312 Z M111.25,20.8710938 C114.277344,20.8710938 116.132812,23.3125 116.132812,27.2382812 C116.132812,31.1835938 114.296875,33.5859375 111.25,33.5859375 C108.203125,33.5859375 106.386719,31.203125 106.386719,27.21875 C106.386719,23.2734375 108.222656,20.8710938 111.25,20.8710938 Z" id="Shape"></path>
                <polygon id="Path" points="25.09375 102 25.09375 79.453125 21.828125 79.453125 14.109375 98.109375 13.859375 98.109375 6.140625 79.453125 2.875 79.453125 2.875 102 5.5 102 5.5 84.78125 5.6875 84.78125 12.796875 101.84375 15.171875 101.84375 22.28125 84.78125 22.46875 84.78125 22.46875 102"></polygon>
                <path d="M35.6875,99.9375 C33.734375,99.9375 32.28125,98.9375 32.28125,97.21875 C32.28125,95.53125 33.40625,94.640625 35.96875,94.46875 L40.5,94.171875 L40.5,95.71875 C40.5,98.125 38.453125,99.9375 35.6875,99.9375 Z M35.1875,102.296875 C37.4375,102.296875 39.28125,101.3125 40.375,99.515625 L40.625,99.515625 L40.625,102 L43.1875,102 L43.1875,90.46875 C43.1875,86.96875 40.890625,84.859375 36.78125,84.859375 C33.1875,84.859375 30.53125,86.640625 30.171875,89.34375 L32.890625,89.34375 C33.265625,88.015625 34.671875,87.25 36.6875,87.25 C39.203125,87.25 40.5,88.390625 40.5,90.46875 L40.5,92 L35.640625,92.296875 C31.71875,92.53125 29.5,94.265625 29.5,97.28125 C29.5,100.359375 31.921875,102.296875 35.1875,102.296875 Z" id="Shape"></path>
                <path d="M48.15625,102 L50.84375,102 L50.84375,91.5625 C50.84375,89.1875 52.703125,87.46875 55.265625,87.46875 C55.796875,87.46875 56.765625,87.5625 56.984375,87.625 L56.984375,84.9375 C56.640625,84.890625 56.078125,84.859375 55.640625,84.859375 C53.40625,84.859375 51.46875,86.015625 50.96875,87.65625 L50.71875,87.65625 L50.71875,85.15625 L48.15625,85.15625 L48.15625,102 Z" id="Path"></path>
                <polygon id="Path" points="63.4375 92.515625 63.1875 92.515625 63.1875 78.46875 60.5 78.46875 60.5 102 63.1875 102 63.1875 95.609375 64.796875 94.109375 71.109375 102 74.53125 102 66.796875 92.375 74.046875 85.15625 70.75 85.15625"></polygon>
                <path d="M100.375,85.15625 L97.6875,85.15625 L97.6875,95.125 C97.6875,98.078125 96.0625,99.84375 93.09375,99.84375 C90.40625,99.84375 89.28125,98.4375 89.28125,95.40625 L89.28125,85.15625 L86.59375,85.15625 L86.59375,96.0625 C86.59375,100.046875 88.5625,102.296875 92.34375,102.296875 C94.921875,102.296875 96.71875,101.234375 97.5625,99.359375 L97.8125,99.359375 L97.8125,102 L100.375,102 L100.375,85.15625 Z" id="Path"></path>
                <path d="M113.640625,84.859375 C111.34375,84.859375 109.328125,86.03125 108.25,87.96875 L108,87.96875 L108,85.15625 L105.4375,85.15625 L105.4375,107.625 L108.125,107.625 L108.125,99.46875 L108.375,99.46875 C109.296875,101.25 111.234375,102.296875 113.640625,102.296875 C117.921875,102.296875 120.71875,98.84375 120.71875,93.578125 C120.71875,88.28125 117.9375,84.859375 113.640625,84.859375 Z M113,99.875 C109.96875,99.875 108.046875,97.4375 108.046875,93.578125 C108.046875,89.703125 109.96875,87.28125 113.015625,87.28125 C116.09375,87.28125 117.9375,89.640625 117.9375,93.578125 C117.9375,97.515625 116.09375,99.875 113,99.875 Z" id="Shape"></path>
                <path d="M140.890625,102.296875 C145.6875,102.296875 148.65625,98.984375 148.65625,93.578125 C148.65625,88.15625 145.6875,84.859375 140.890625,84.859375 C136.09375,84.859375 133.125,88.15625 133.125,93.578125 C133.125,98.984375 136.09375,102.296875 140.890625,102.296875 Z M140.890625,99.875 C137.703125,99.875 135.90625,97.5625 135.90625,93.578125 C135.90625,89.578125 137.703125,87.28125 140.890625,87.28125 C144.078125,87.28125 145.875,89.578125 145.875,93.578125 C145.875,97.5625 144.078125,99.875 140.890625,99.875 Z" id="Shape"></path>
                <path d="M152.875,102 L155.5625,102 L155.5625,91.5625 C155.5625,89.1875 157.421875,87.46875 159.984375,87.46875 C160.515625,87.46875 161.484375,87.5625 161.703125,87.625 L161.703125,84.9375 C161.359375,84.890625 160.796875,84.859375 160.359375,84.859375 C158.125,84.859375 156.1875,86.015625 155.6875,87.65625 L155.4375,87.65625 L155.4375,85.15625 L152.875,85.15625 L152.875,102 Z" id="Path"></path>
                <path d="M180.328125,102.296875 C182.65625,102.296875 184.65625,101.1875 185.71875,99.3125 L185.96875,99.3125 L185.96875,102 L188.53125,102 L188.53125,78.46875 L185.84375,78.46875 L185.84375,87.8125 L185.609375,87.8125 C184.65625,85.96875 182.671875,84.859375 180.328125,84.859375 C176.046875,84.859375 173.25,88.296875 173.25,93.578125 C173.25,98.875 176.015625,102.296875 180.328125,102.296875 Z M180.953125,87.28125 C184,87.28125 185.90625,89.71875 185.90625,93.578125 C185.90625,97.46875 184.015625,99.875 180.953125,99.875 C177.875,99.875 176.03125,97.515625 176.03125,93.578125 C176.03125,89.65625 177.890625,87.28125 180.953125,87.28125 Z" id="Shape"></path>
                <path d="M200.671875,102.296875 C205.46875,102.296875 208.4375,98.984375 208.4375,93.578125 C208.4375,88.15625 205.46875,84.859375 200.671875,84.859375 C195.875,84.859375 192.90625,88.15625 192.90625,93.578125 C192.90625,98.984375 195.875,102.296875 200.671875,102.296875 Z M200.671875,99.875 C197.484375,99.875 195.6875,97.5625 195.6875,93.578125 C195.6875,89.578125 197.484375,87.28125 200.671875,87.28125 C203.859375,87.28125 205.65625,89.578125 205.65625,93.578125 C205.65625,97.5625 203.859375,99.875 200.671875,99.875 Z" id="Shape"></path>
                <polygon id="Path" points="233.21875 85.15625 230.515625 85.15625 227.203125 98.625 226.953125 98.625 223.1875 85.15625 220.609375 85.15625 216.84375 98.625 216.59375 98.625 213.28125 85.15625 210.5625 85.15625 215.28125 102 218 102 221.75 88.96875 222 88.96875 225.765625 102 228.5 102"></polygon>
                <path d="M236.8125,102 L239.5,102 L239.5,92.03125 C239.5,89.078125 241.234375,87.28125 243.921875,87.28125 C246.609375,87.28125 247.890625,88.71875 247.890625,91.75 L247.890625,102 L250.578125,102 L250.578125,91.09375 C250.578125,87.09375 248.46875,84.859375 244.6875,84.859375 C242.109375,84.859375 240.46875,85.953125 239.625,87.8125 L239.375,87.8125 L239.375,85.15625 L236.8125,85.15625 L236.8125,102 Z" id="Path"></path>
                <path d="M257.703125,102.15625 C258.828125,102.15625 259.734375,101.234375 259.734375,100.125 C259.734375,99 258.828125,98.09375 257.703125,98.09375 C256.59375,98.09375 255.671875,99 255.671875,100.125 C255.671875,101.234375 256.59375,102.15625 257.703125,102.15625 Z" id="Path"></path>
            </g>
            <circle id="Oval" stroke-opacity="0.25" stroke="#000000" fill="#FE5F57" cx="36" cy="37" r="15.5"></circle>
            <circle id="Oval" stroke-opacity="0.25" stroke="#000000" fill="#FEBD2E" cx="78" cy="37" r="15.5"></circle>
            <circle id="Oval" stroke-opacity="0.25" stroke="#000000" fill="#2BC83E" cx="120" cy="37" r="15.5"></circle>
        </g>
    </g>
</svg>